PathFileType	4	(X/Y/Z)	7_coords_data.trc
DataRate	CameraRate	NumFrames	NumMarkers	Units	OrigDataRate	OrigDataStartFrame	OrigNumFrames
30.0	30.0	9	21	m	30.0	53	73
Frame#	Time	THUMB_TIP	THUMB_IP	THUMB_MCP	THUMB_CMC	INDEX_TIP	INDEX_DIP	INDEX_PIP	INDEX_MCP	MIDDLE_TIP	MIDDLE_DIP	MIDDLE_PIP	MIDDLE_MCP	RING_TIP	RING_DIP	RING_PIP	RING_MCP	PINKY_TIP	PINKY_DIP	PINKY_PIP	PINKY_MCP	WRIST
X1	Y1	Z1	X2	Y2	Z2	X3	Y3	Z3	X4	Y4	Z4	X5	Y5	Z5	X6	Y6	Z6	X7	Y7	Z7	X8	Y8	Z8	X9	Y9	Z9	X10	Y10	Z10	X11	Y11	Z11	X12	Y12	Z12	X13	Y13	Z13	X14	Y14	Z14	X15	Y15	Z15	X16	Y16	Z16	X17	Y17	Z17	X18	Y18	Z18	X19	Y19	Z19	X20	Y20	Z20	X21	Y21	Z21
52	1.7333333333333334	-0.03973839950561524	-0.08607199859619141	0.9950020141601562	-0.046297199249267576	-0.06856809997558594	1.0140900268554687	-0.05848780059814453	-0.05438570022583008	1.0373399658203124	-0.05695090103149414	-0.02577549934387207	1.0550899658203126	-0.008208609580993653	-0.053595001220703126	0.947594970703125	-0.027692399978637695	-0.04687279891967774	0.9535789794921875	-0.04671580123901367	-0.04040829849243164	0.9642100219726563	-0.06534310150146484	-0.03240480041503906	0.9962310180664062	0.011567399978637696	-0.03559640121459961	0.9457069702148437	-0.008125539779663085	-0.026309200286865234	0.9504630126953125	-0.03267100143432617	-0.017425899505615235	0.9611329956054687	-0.05913079833984375	-0.009603690147399903	0.9920850219726562	0.015131400108337403	-0.01906979942321777	0.9543759765625	-0.002337680101394653	-0.008712180137634277	0.9604219970703125	-0.022806900024414063	0.000965276002883911	0.9705750122070312	-0.04673609924316406	0.006845180034637451	0.9975230102539062	0.01922249984741211	0.01051710033416748	0.97985302734375	0.003107549905776977	0.015973699569702147	0.9862739868164062	-0.012211099624633789	0.018943899154663085	0.9937379760742188	-0.033196601867675785	0.019212200164794923	1.0097999877929686	-0.06830519866943359	0.004652800083160401	1.068
53	1.7666666666666666	-0.046689300537109374	-0.08742559814453126	0.993635986328125	-0.050972999572753905	-0.06931580352783204	1.0126500244140626	-0.06087760162353516	-0.054125999450683596	1.0360999755859375	-0.05727799987792969	-0.025460100173950194	1.0538199462890625	-0.01407450008392334	-0.051988399505615235	0.9399739990234375	-0.03266339874267578	-0.045041301727294925	0.9483690185546875	-0.05020589828491211	-0.03856470108032226	0.9611640014648437	-0.06491709899902344	-0.03119379997253418	0.9948330078125	0.004806690216064453	-0.02892959976196289	0.9322360229492187	-0.013985699653625488	-0.020785600662231445	0.9416300048828125	-0.0366067008972168	-0.013479399681091308	0.9567890014648438	-0.05828670120239258	-0.008394100189208985	0.9910029907226563	0.010417599678039551	-0.012975099563598633	0.9441229858398438	-0.006240449905395508	-0.0038339300155639648	0.9537940063476562	-0.02517340087890625	0.004366250038146973	0.967291015625	-0.045300399780273434	0.007709370136260986	0.9962440185546875	0.019004100799560546	0.015046500205993652	0.9758419799804687	0.003094739913940429	0.01908530044555664	0.9837890014648437	-0.011771900177001953	0.02103179931640625	0.9922310180664062	-0.03175709915161133	0.019646400451660155	1.0091900024414062	-0.06781529998779297	0.005269139766693115	1.0671099853515624
54	1.8	-0.049019699096679685	-0.0866624984741211	0.9921110229492187	-0.052296398162841796	-0.06839369964599609	1.0113300170898438	-0.061082401275634766	-0.05298870086669922	1.03475	-0.057094799041748044	-0.024301399230957033	1.0526400146484376	-0.01812179946899414	-0.048984199523925784	0.9344959716796875	-0.03597689819335938	-0.042241901397705076	0.9446849975585937	-0.05238410186767578	-0.0360968017578125	0.9590070190429687	-0.0644478988647461	-0.02950149917602539	0.9935159912109375	-0.0009964770078659051	-0.02172249984741211	0.9234119873046875	-0.01877790069580078	-0.015030900001525878	0.9359420166015625	-0.03941899871826172	-0.009468250274658203	0.9540390014648438	-0.0577505989074707	-0.0067402000427246095	0.9900070190429687	0.006006830215454102	-0.006312719821929932	0.9368770141601562	-0.009863889694213868	0.001516209959983825	0.9490809936523438	-0.027428699493408204	0.00814995002746582	0.9649660034179688	-0.04457740020751953	0.009360870361328126	0.994958984375	0.01840399932861328	0.01982900047302246	0.97285302734375	0.00276730990409851	0.02272279930114746	0.9818289794921875	-0.011739199638366699	0.02376370048522949	0.9910079956054687	-0.03119020080566406	0.02118400001525879	1.0081500244140624	-0.06736239624023438	0.0063457398414611815	1.0659599609375
55	1.8333333333333333	-0.050412700653076174	-0.08571099853515625	0.9911380004882813	-0.05256340026855469	-0.0671404037475586	1.0103300170898437	-0.06050299835205078	-0.05161740112304687	1.03375	-0.05633679962158203	-0.022871099472045898	1.0516600341796876	-0.019772199630737303	-0.04556679916381836	0.9308980102539063	-0.03714339828491211	-0.039281600952148436	0.9421820068359374	-0.05291109848022461	-0.03363359832763672	0.957541015625	-0.0634832000732422	-0.027784000396728514	0.9926279907226563	-0.0039381799697875974	-0.01596560001373291	0.9185490112304687	-0.021023300170898436	-0.010454899787902832	0.9329320068359375	-0.04047050094604492	-0.006246190071105957	0.9527470092773438	-0.05690129852294922	-0.0050832700729370114	0.9891110229492187	0.004246660232543945	-0.0013008699417114248	0.9332869873046875	-0.011187700271606446	0.005477829933166504	0.946843017578125	-0.028035800933837892	0.011038700103759765	0.9637979736328125	-0.044109100341796874	0.011132200241088868	0.9940560302734375	0.01831450080871582	0.023721599578857423	0.9717890014648437	0.002741260051727295	0.025971799850463866	0.9809240112304688	-0.011697699546813965	0.026438100814819336	0.990260009765625	-0.030952600479125975	0.02314889907836914	1.0073200073242188	-0.06693000030517578	0.007616199970245361	1.065280029296875
56	1.8666666666666667	-0.05050559997558594	-0.0848938980102539	0.9904990234375	-0.05193239974975586	-0.06616439819335937	1.0095499877929688	-0.05943230056762695	-0.05059939956665039	1.0330999755859376	-0.0554093017578125	-0.02178260040283203	1.051219970703125	-0.021242599487304687	-0.04314720153808594	0.9278330078125	-0.038064098358154295	-0.03727059936523437	0.9403369750976562	-0.05304990005493164	-0.03209040069580078	0.9565789794921875	-0.062257999420166014	-0.026718599319458008	0.9920130004882812	-0.006511559963226318	-0.011301899909973144	0.9148259887695313	-0.022824899673461914	-0.006894309997558593	0.93072900390625	-0.04116329956054687	-0.003954090118408203	0.9517239990234375	-0.05585440063476563	-0.0039795699119567875	0.9885180053710938	0.003585870027542114	0.00239473009109497	0.93125	-0.011680299758911133	0.008383660316467286	0.945614990234375	-0.028124200820922853	0.013156499862670899	0.9633140258789062	-0.04341130065917969	0.012288700103759766	0.9936400146484375	0.019189800262451172	0.02566469955444336	0.9719099731445312	0.0034182300567626948	0.0279237003326416	0.9811420288085938	-0.011042499542236328	0.028127099990844725	0.9900460205078125	-0.03055069923400879	0.02461720085144043	1.0068900146484374	-0.06655719757080078	0.008537929534912109	1.0648399658203125
57	1.9	-0.04751010131835937	-0.08371659851074219	0.9895640258789062	-0.049456798553466796	-0.06507579803466797	1.0085800170898438	-0.05765079879760742	-0.049904800415039065	1.032300048828125	-0.05439509963989258	-0.020904699325561524	1.05043994140625	-0.020947999954223633	-0.04102989959716797	0.926343017578125	-0.03767940139770508	-0.03563750076293945	0.9391929931640625	-0.05251499938964844	-0.030927900314331055	0.955697021484375	-0.06137839889526367	-0.025914499282836914	0.99122900390625	-0.006851880073547363	-0.00865155029296875	0.9133920288085937	-0.02309760093688965	-0.0048617000579833985	0.9297249755859375	-0.04128609848022461	-0.002514509916305542	0.9509849853515625	-0.055558700561523434	-0.003166019916534424	0.9878189697265625	0.0041158199310302734	0.004616960048675537	0.9307999877929688	-0.011326000213623047	0.010218400001525879	0.9450469970703125	-0.028034000396728515	0.014624799728393555	0.962698974609375	-0.04352199935913086	0.013389699935913086	0.9928800048828125	0.019303899765014648	0.027459100723266603	0.9719719848632813	0.003563329935073852	0.029362600326538087	0.980844970703125	-0.011054900169372559	0.029582099914550783	0.9896489868164062	-0.03082430076599121	0.025830699920654298	1.0061099853515625	-0.0661415023803711	0.009110810279846192	1.0641600341796875
58	1.9333333333333333	-0.04512829971313476	-0.08375520324707031	0.9898389892578126	-0.04762030029296875	-0.06487290191650391	1.008489990234375	-0.05627840042114258	-0.04945819854736328	1.03193994140625	-0.053739200592041014	-0.020020799636840822	1.04977001953125	-0.018930599212646483	-0.0403568000793457	0.9258350219726562	-0.03597330093383789	-0.035296199798583984	0.9387039794921875	-0.050997398376464845	-0.0308164005279541	0.9550670166015625	-0.060195999145507814	-0.025812700271606447	0.990447998046875	-0.005011020183563232	-0.007968760013580323	0.9131649780273438	-0.0215797004699707	-0.004344950199127198	0.9292579956054687	-0.040136199951171875	-0.002211339950561523	0.9502659912109375	-0.05505799865722656	-0.0028524301052093503	0.9868209838867188	0.005405129909515381	0.005993710041046142	0.9305330200195312	-0.010423199653625488	0.011327300071716308	0.944489990234375	-0.027606399536132812	0.015520999908447266	0.9618870239257813	-0.043532501220703124	0.014114899635314941	0.99189501953125	0.019607599258422852	0.02901110076904297	0.9719130249023438	0.003652559995651245	0.03077429962158203	0.9803989868164062	-0.011194899559020996	0.030873300552368164	0.9888690185546875	-0.031321699142456055	0.026998199462890626	1.005030029296875	-0.06607939910888672	0.009902480125427247	1.0630999755859376
59	1.9666666666666666	-0.043503501892089846	-0.08373809814453125	0.98985498046875	-0.04604819869995117	-0.06475469970703125	1.008260009765625	-0.054991500854492184	-0.04915060043334961	1.0315699462890624	-0.05305139923095703	-0.019619300842285158	1.0492099609375	-0.01722010040283203	-0.04000680160522461	0.9254550170898438	-0.03434000015258789	-0.03524440002441406	0.9381699829101563	-0.04948839950561523	-0.030895999908447266	0.9544739990234375	-0.058948200225830076	-0.025766700744628907	0.989760986328125	-0.004605810165405274	-0.0068832201957702635	0.9119600219726562	-0.021137100219726562	-0.003635430097579956	0.928302978515625	-0.039546100616455075	-0.001863569974899292	0.9494650268554687	-0.05425559997558594	-0.002777699947357177	0.9859390258789062	0.006174039840698242	0.007002449989318847	0.9299000244140625	-0.009880000114440918	0.012133600234985352	0.94381298828125	-0.027179000854492187	0.016065099716186523	0.9611799926757812	-0.04311800003051758	0.01445139980316162	0.9910910034179687	0.019958900451660155	0.030466699600219728	0.9715900268554688	0.003807250022888183	0.031992300033569336	0.9800419921875	-0.011122300148010253	0.031733600616455075	0.9882760009765625	-0.03126469993591308	0.02766160011291504	1.0041199951171875	-0.06581320190429688	0.010168299674987794	1.0623699951171874
60	2.0	-0.040235801696777346	-0.08286740112304687	0.9889669799804688	-0.043579601287841795	-0.06409349822998046	1.0074000244140624	-0.05326010131835938	-0.04885630035400391	1.030780029296875	-0.052087699890136716	-0.01929829978942871	1.0484000244140625	-0.015915300369262694	-0.03876580047607422	0.9248049926757812	-0.03325669860839844	-0.03438079833984375	0.937551025390625	-0.04852479934692383	-0.03047130012512207	0.9537559814453125	-0.05816070175170898	-0.02557270050048828	0.9892429809570312	-0.004386109828948975	-0.005476920127868652	0.9112059936523438	-0.020954099655151368	-0.0026088099479675293	0.9275980224609375	-0.039395000457763674	-0.00123088002204895	0.9487650146484375	-0.054006099700927734	-0.0024844200611114503	0.9854130249023437	0.006357480049133301	0.008618229866027833	0.9293040161132813	-0.009762080192565917	0.013410300254821777	0.94314697265625	-0.027346099853515625	0.017025100708007813	0.9603510131835937	-0.04335649871826172	0.015040800094604493	0.9904660034179688	0.019596399307250975	0.03196940040588379	0.9707689819335937	0.00340676999092102	0.03326110076904297	0.9792570190429688	-0.01159309959411621	0.032827800750732425	0.987635009765625	-0.03165830039978027	0.02829210090637207	1.00347998046875	-0.06540480041503906	0.01023349952697754	1.0615699462890624
